PathFileType	4	(X/Y/Z)	OpenSim_Sub03_CSStiffKnee_Magnet.trc
DataRate	CameraRate	NumFrames	NumMarkers	Units	OrigDataRate	OrigDataStartFrame	OrigNumFrames
100	100	20	8	m	100	2274	3637
Frame#	Time	torso_imu_offset_imu	pelvis_imu_offset_imu	tibia_r_imu_offset_imu	femur_r_imu_offset_imu	tibia_l_imu_offset_imu	femur_l_imu_offset_imu	toes_r_imu_offset_imu	toes_l_imu_offset_imu
				X1	Y1	Z1	X2	Y2	Z2	X3	Y3	Z3	X4	Y4	Z4	X5	Y5	Z5	X6	Y6	Z6	X7	Y7	Z7	X8		Y8	Z8	

2274	22.73000000	-0.90307600	-0.20288100	0.22045900	-0.68310500	0.12622100	-0.65405300	-0.67919900	-0.46411100	0.03369100	-0.73120100	-0.47094700	-0.01709000	-0.46313500	0.67846700	0.18139600	-0.62353500	0.51928700	0.25854500	-0.68774400	-0.15014600	-0.36206100	-0.81347700	-0.17724600	0.03418000
2275	22.74000000	-0.90063500	-0.20898400	0.21191400	-0.67675800	0.12841800	-0.65869100	-0.67675800	-0.47241200	0.02954100	-0.72241200	-0.48535200	-0.01416000	-0.45678700	0.68505900	0.18994100	-0.63671900	0.51684600	0.25854500	-0.69189500	-0.15014600	-0.36010700	-0.80712900	-0.16845700	0.05883800
2276	22.75000000	-0.90307600	-0.20288100	0.21826200	-0.67627000	0.11792000	-0.66308600	-0.67260700	-0.47656200	0.03857400	-0.71801800	-0.49560500	-0.01367200	-0.44555700	0.68945300	0.19848600	-0.63867200	0.51245100	0.24951200	-0.69189500	-0.15649400	-0.35791000	-0.81201200	-0.15551800	0.07690400
2277	22.76000000	-0.90527300	-0.20288100	0.20947300	-0.67846700	0.12011700	-0.66528300	-0.67016600	-0.48071300	0.03418000	-0.71337900	-0.50585900	-0.00634800	-0.43237300	0.70043900	0.20214800	-0.64282200	0.50146500	0.24975600	-0.69189500	-0.15234400	-0.36010700	-0.80590800	-0.14013700	0.10376000
2278	22.77000000	-0.90502900	-0.20703100	0.21386700	-0.67431600	0.12231400	-0.66772500	-0.66406200	-0.48071300	0.03418000	-0.71118200	-0.51635700	-0.00830100	-0.42602500	0.70483400	0.19751000	-0.64697300	0.49707000	0.24072300	-0.69628900	-0.14624000	-0.35815400	-0.81103500	-0.12695300	0.11279300
2279	22.78000000	-0.90722700	-0.20483400	0.20947300	-0.67651400	0.12207000	-0.66308600	-0.66796900	-0.48901400	0.03222700	-0.71069300	-0.52661100	-0.00122100	-0.41723600	0.71142600	0.19921900	-0.65576200	0.49487300	0.24975600	-0.69628900	-0.14819300	-0.35376000	-0.81567400	-0.12036100	0.11499000
2280	22.79000000	-0.91357400	-0.20703100	0.20727500	-0.67627000	0.12011700	-0.67016600	-0.66357400	-0.49121100	0.03466800	-0.70629900	-0.54126000	0.00390600	-0.41723600	0.71582000	0.19897500	-0.65771500	0.49047900	0.24096700	-0.69848600	-0.14013700	-0.36010700	-0.81372100	-0.11377000	0.11254900
2281	22.80000000	-0.90527300	-0.20288100	0.20507800	-0.67407200	0.11792000	-0.66308600	-0.66381800	-0.48901400	0.03222700	-0.70166000	-0.55151400	-0.00244100	-0.41064500	0.71801800	0.18994100	-0.66430700	0.48608400	0.24316400	-0.69848600	-0.14013700	-0.35815400	-0.81372100	-0.11596700	0.11254900
2282	22.81000000	-0.90966800	-0.19848600	0.20922900	-0.67431600	0.12011700	-0.66772500	-0.66577100	-0.49121100	0.03222700	-0.69506800	-0.56176800	-0.00195300	-0.41943400	0.71142600	0.17700200	-0.66430700	0.48388700	0.24096700	-0.70263700	-0.13623000	-0.35815400	-0.81591800	-0.11157200	0.09692400
2283	22.82000000	-0.90722700	-0.20288100	0.21167000	-0.67627000	0.11596700	-0.66992200	-0.65698200	-0.49951200	0.03271500	-0.68432600	-0.57202100	0.00537100	-0.42822300	0.70263700	0.17529300	-0.66650400	0.48828100	0.24096700	-0.69653300	-0.13403300	-0.35815400	-0.82470700	-0.11596700	0.07885700
2284	22.83000000	-0.90527300	-0.20288100	0.21167000	-0.67627000	0.11596700	-0.66992200	-0.65722700	-0.49731400	0.03247100	-0.68383800	-0.58447300	-0.00122100	-0.44165000	0.70483400	0.17089800	-0.67089800	0.48803700	0.23877000	-0.69873000	-0.12597700	-0.35620100	-0.83374000	-0.11377000	0.06103500
2285	22.84000000	-0.90527300	-0.20068400	0.20922900	-0.68042000	0.11377000	-0.67211900	-0.65893600	-0.50585900	0.02392600	-0.67309600	-0.59887700	-0.00048800	-0.45019500	0.69384800	0.17138700	-0.67309600	0.48803700	0.24096700	-0.69677700	-0.12377900	-0.35424800	-0.82959000	-0.10913100	0.04077100
2286	22.85000000	-0.90527300	-0.20068400	0.21362300	-0.68017600	0.10742200	-0.66259800	-0.65673800	-0.50781200	0.01733400	-0.66430700	-0.60913100	-0.00463900	-0.45922900	0.69165000	0.17163100	-0.67285200	0.47949200	0.24340800	-0.70117200	-0.11987300	-0.35839800	-0.83178700	-0.11108400	0.00927700
2287	22.86000000	-0.90747100	-0.19848600	0.21142600	-0.68237300	0.10546900	-0.66723600	-0.65454100	-0.50781200	0.01953100	-0.66406200	-0.62377900	-0.00415000	-0.47436500	0.67627000	0.16821300	-0.67260700	0.47509800	0.24121100	-0.69897500	-0.11987300	-0.35839800	-0.83178700	-0.10888700	-0.01562500
2288	22.87000000	-0.90747100	-0.19848600	0.21362300	-0.68212900	0.10107400	-0.66943400	-0.65454100	-0.51196300	0.01513700	-0.65527300	-0.63403300	-0.00830100	-0.48291000	0.66528300	0.16870100	-0.68139600	0.47070300	0.25244100	-0.70117200	-0.11767600	-0.35839800	-0.83178700	-0.10644500	-0.04248000
2289	22.88000000	-0.90966800	-0.19653300	0.21362300	-0.67797900	0.10546900	-0.67187500	-0.65014600	-0.51416000	0.01293900	-0.64892600	-0.63818400	-0.00585900	-0.50073200	0.65649400	0.16284200	-0.68359400	0.46850600	0.24804700	-0.69702100	-0.11572300	-0.36059600	-0.83862300	-0.10620100	-0.06958000
2290	22.89000000	-0.90332000	-0.19433600	0.21557600	-0.67797900	0.10107400	-0.66943400	-0.64794900	-0.51831100	0.00878900	-0.64453100	-0.64624000	-0.01001000	-0.51831100	0.64770500	0.16333000	-0.68310500	0.45752000	0.26147500	-0.69897500	-0.11962900	-0.36254900	-0.83203100	-0.10400400	-0.09204100
2291	22.90000000	-0.90747100	-0.19653300	0.21801800	-0.68432600	0.09692400	-0.66918900	-0.64599600	-0.51611300	0.00634800	-0.63989300	-0.65673800	-0.01416000	-0.53125000	0.63452100	0.15966800	-0.68310500	0.45752000	0.25708000	-0.69287100	-0.11157200	-0.36474600	-0.82983400	-0.10376000	-0.12793000
2292	22.91000000	-0.90332000	-0.19653300	0.21362300	-0.68212900	0.09912100	-0.67382800	-0.64355500	-0.52661100	0.00219700	-0.63769500	-0.66479500	-0.00927700	-0.54418900	0.61694300	0.15869100	-0.69140600	0.44213900	0.25488300	-0.69726600	-0.10742200	-0.36499000	-0.82495100	-0.11010700	-0.14819300
2293	22.92000000	-0.90527300	-0.19848600	0.22021500	-0.67773400	0.09277300	-0.67138700	-0.63916000	-0.53076200	0.00024400	-0.62915000	-0.67114300	-0.00903300	-0.55981400	0.61010700	0.16137700	-0.69335900	0.43139600	0.25952100	-0.69921900	-0.10937500	-0.37329100	-0.82080100	-0.10766600	-0.17968800
